<?xml version="1.0" encoding="UTF-8"?>
<svg version="1.1" xmlns="http://www.w3.org/2000/svg" width="145" height="145">
<path d="M0 0 C0.82242187 -0.02835938 1.64484375 -0.05671875 2.4921875 -0.0859375 C7.33496798 0.76190834 10.30942235 3.34125167 13.30078125 7.1328125 C14.00589844 8.24398438 14.71101563 9.35515625 15.4375 10.5 C16.0411438 11.43573853 16.0411438 11.43573853 16.65698242 12.39038086 C17.59496816 13.8446765 18.52792281 15.30222396 19.45703125 16.76220703 C22.53946845 21.59069692 25.66948152 26.38828983 28.7984314 31.18670654 C29.91901532 32.90908832 31.03372649 34.63515736 32.14770508 36.36181641 C37.84964054 46.62551036 37.84964054 46.62551036 47 52.9375 C50.46215203 53.54808591 53.21584086 53.31947172 56.42089844 51.67089844 C62.78244236 46.83320859 67.07155608 38.59586166 71.3125 31.9375 C72.44086453 30.1897543 73.56978395 28.44236675 74.69921875 26.6953125 C76.40500829 24.04854831 78.10866745 21.40049679 79.80712891 18.74902344 C81.40315451 16.26358789 83.01266779 13.78737799 84.625 11.3125 C85.10477295 10.55718994 85.5845459 9.80187988 86.07885742 9.02368164 C88.63567336 5.12131493 90.67434012 2.22709422 95.125 0.375 C97.625 -0.0234375 97.625 -0.0234375 100.125 0 C100.95 -0.00773438 101.775 -0.01546875 102.625 -0.0234375 C108.25885686 0.87445844 111.93318941 4.84429954 115.8125 8.75 C116.29783203 9.21921875 116.78316406 9.6884375 117.28320312 10.171875 C120.77578551 13.65964003 122.89079398 16.6133207 123.3125 21.5859375 C123.250625 22.30007812 123.18875 23.01421875 123.125 23.75 C123.08375 24.45898438 123.0425 25.16796875 123 25.8984375 C120.00513736 34.37496838 111.62142883 38.61486118 104.375 43.0625 C102.13735432 44.46768919 99.90038026 45.87394843 97.6640625 47.28125 C96.56094727 47.97089844 95.45783203 48.66054688 94.32128906 49.37109375 C89.76882267 52.22525233 85.24646597 55.12102273 80.75 58.0625 C80.01426758 58.53067139 79.27853516 58.99884277 78.52050781 59.48120117 C74.68888813 61.99884807 72.01242801 64.0388271 70.125 68.375 C69.4249311 74.67562006 70.12037368 77.24801572 74.125 82.375 C76.91028756 84.64877333 76.91028756 84.64877333 80.25 86.6875 C80.87310059 87.0892041 81.49620117 87.4909082 82.13818359 87.90478516 C83.59182203 88.8419231 85.04863176 89.77415204 86.5078125 90.70263672 C91.35800457 93.80187326 96.17298245 96.95542005 100.99163818 100.10336304 C102.7255521 101.2340574 104.46233911 102.36021776 106.19970703 103.4855957 C107.28106934 104.189021 108.36243164 104.89244629 109.4765625 105.6171875 C110.44416504 106.2447998 111.41176758 106.87241211 112.40869141 107.51904297 C117.90458099 111.27418881 121.18374731 113.79631033 123.125 120.375 C123.73109112 125.03324318 122.99718648 128.15321059 120.25390625 131.99609375 C108.77455739 145.02409001 108.77455739 145.02409001 100.8125 145.625 C95.99568783 145.29843646 93.06007797 144.34517005 89.6171875 140.83984375 C84.81046044 134.99978648 80.96833581 128.44745158 76.96606445 122.046875 C73.13108776 115.92711725 69.2162874 109.86910587 65.1875 103.875 C64.65624512 103.06820801 64.12499023 102.26141602 63.57763672 101.43017578 C60.8668854 97.4339843 58.70758619 94.33238606 54.125 92.375 C48.49068066 91.64462527 44.5767263 92.96146552 40.125 96.375 C38.20767517 98.64553463 36.7721877 101.10530936 35.3125 103.6875 C34.456568 105.12757673 33.59843792 106.56634893 32.73828125 108.00390625 C32.09173584 109.09662842 32.09173584 109.09662842 31.43212891 110.21142578 C29.39292484 113.58673891 27.20557645 116.8568334 25 120.125 C24.1691366 121.3566803 23.3384053 122.58844971 22.5078125 123.8203125 C22.10852539 124.41231445 21.70923828 125.00431641 21.29785156 125.61425781 C20.15387157 127.33165659 19.03765364 129.06388486 17.9296875 130.8046875 C9.9708747 143.18170056 9.9708747 143.18170056 4.03515625 145.0234375 C-0.91531195 145.92044541 -4.54112699 145.31781085 -8.890625 142.8125 C-13.87025706 139.20520748 -19.70171047 134.21571561 -21.875 128.375 C-22.55532263 122.77740878 -22.94143221 117.75249504 -19.46557617 112.98461914 C-15.69502303 109.16892354 -10.86190098 106.59030316 -6.3125 103.8125 C-4.05587999 102.40061807 -1.80073054 100.98658263 0.453125 99.5703125 C1.01687332 99.21775894 1.58062164 98.86520538 2.16145325 98.50196838 C7.48991139 95.16523716 12.73425301 91.71564081 17.9375 88.1875 C18.71230713 87.67179443 19.48711426 87.15608887 20.28540039 86.62475586 C27.04059327 82.13189953 27.04059327 82.13189953 30.65625 75.12890625 C30.6459375 74.40574219 30.635625 73.68257813 30.625 72.9375 C30.6353125 72.21691406 30.645625 71.49632813 30.65625 70.75390625 C29.56392834 65.86255411 26.91081927 62.96169325 22.96484375 60.015625 C21.67086281 59.20775436 20.369495 58.41164203 19.0625 57.625 C17.55603921 56.68037987 16.0509315 55.73359989 14.546875 54.78515625 C13.70318359 54.25680176 12.85949219 53.72844727 11.99023438 53.18408203 C6.8378284 49.93090137 1.73004186 46.6112663 -3.35958862 43.26086426 C-4.57078576 42.46681298 -5.78506104 41.67743569 -7.00247192 40.89294434 C-8.73431822 39.77678054 -10.45575649 38.64598904 -12.17578125 37.51171875 C-13.17778564 36.85905029 -14.17979004 36.20638184 -15.2121582 35.53393555 C-18.82889226 32.60161876 -21.44832798 29.43306505 -22.40625 24.8125 C-22.28371359 15.25466022 -17.60232013 10.88127437 -11.09375 4.328125 C-7.48658031 1.15279957 -4.80344154 0.07481996 0 0 Z " fill="#FFFFFF" transform="translate(21.875,-0.375)"/>
</svg>
