<?xml version="1.0" standalone="no"?>
<!DOCTYPE svg PUBLIC "-//W3C//DTD SVG 20010904//EN"
 "http://www.w3.org/TR/2001/REC-SVG-20010904/DTD/svg10.dtd">
<svg version="1.0" xmlns="http://www.w3.org/2000/svg"
 width="145.000000pt" height="145.000000pt" viewBox="0 0 145.000000 145.000000"
 preserveAspectRatio="xMidYMid meet">

<g transform="translate(0.000000,145.000000) scale(0.100000,-0.100000)"
fill="#000000" stroke="none">
<path d="M155 1432 c-16 -11 -56 -47 -89 -80 -49 -51 -59 -67 -63 -104 -6 -49
10 -89 49 -124 12 -12 118 -83 235 -159 117 -76 220 -149 229 -163 25 -38 28
-92 7 -132 -14 -28 -69 -69 -258 -195 -223 -148 -241 -163 -254 -200 -23 -66
-9 -108 57 -178 31 -32 69 -65 84 -73 37 -19 104 -18 139 3 19 12 81 97 175
240 81 123 159 234 176 248 33 28 98 34 145 13 19 -9 73 -82 178 -244 84 -126
165 -241 181 -253 25 -19 38 -22 87 -19 57 4 60 6 130 76 l72 72 0 64 c0 53
-4 69 -23 89 -13 13 -122 89 -244 168 -141 92 -228 155 -239 174 -28 45 -25
116 6 153 13 16 125 95 247 175 145 95 229 156 241 175 21 36 22 103 3 141 -8
15 -42 53 -76 84 -70 65 -111 78 -175 56 -37 -13 -51 -31 -195 -248 -85 -129
-166 -242 -180 -253 -37 -27 -89 -33 -133 -14 -32 13 -58 46 -191 250 -85 129
-166 242 -180 252 -41 26 -105 29 -141 6z"/>
</g>
</svg>
